<svg xmlns="http://www.w3.org/2000/svg" width="980" height="250" viewBox="0 0 980 250" version="1.1"><path d="M 301.365 23.493 C 271.419 30.006, 252.035 53.586, 252.035 83.500 C 252.035 107.155, 264.553 127.766, 285.058 137.874 C 310.295 150.315, 343.722 146.494, 362.277 129.048 L 368.500 123.197 362 117.281 C 358.425 114.027, 353.566 109.635, 351.201 107.522 L 346.903 103.679 342.701 107.789 C 336.229 114.120, 328.621 117.158, 319.236 117.158 C 304.919 117.158, 294.734 111.063, 289.151 99.155 C 286.834 94.213, 286.501 92.239, 286.507 83.500 C 286.516 70.949, 288.769 65.240, 296.499 58.175 C 302.803 52.414, 309.469 50, 319.077 50 C 328.031 50, 335.462 52.812, 341.968 58.661 L 347.033 63.215 353.627 57.358 C 357.254 54.136, 362.084 49.852, 364.361 47.839 L 368.500 44.178 365 40.458 C 360.838 36.035, 350.240 29.011, 344.135 26.628 C 332.561 22.110, 313.984 20.749, 301.365 23.493 M 399 83.500 L 399 143 415.500 143 L 432 143 432 122.500 L 432 102 458.530 102 L 485.060 102 484.780 89.250 L 484.500 76.500 458.250 76.233 L 432 75.967 432 62.983 L 432 50 462 50 L 492 50 492 37 L 492 24 445.500 24 L 399 24 399 83.500 M 512 37.500 L 512 51 530 51 L 548 51 548 97 L 548 143 565 143 L 582 143 582 97 L 582 51 600 51 L 618 51 618 37.500 L 618 24 565 24 L 512 24 512 37.500 M 270.446 164.087 C 269.416 165.755, 271.733 167.667, 273.113 166.287 C 274.267 165.133, 273.545 163, 272 163 C 271.515 163, 270.816 163.489, 270.446 164.087 M 318 173.489 C 318 182.675, 318.072 182.976, 320.250 182.933 C 321.488 182.909, 323.635 183.172, 325.022 183.518 C 326.788 183.958, 328.362 183.503, 330.272 182 C 336.247 177.301, 331.824 168.060, 324.277 169.476 C 321.157 170.061, 321 169.945, 321 167.045 C 321 165.005, 320.505 164, 319.500 164 C 318.272 164, 318 165.721, 318 173.489 M 417 173.500 C 417 181.278, 417.272 183, 418.500 183 C 419.728 183, 420 181.278, 420 173.500 C 420 165.722, 419.728 164, 418.500 164 C 417.272 164, 417 165.722, 417 173.500 M 482 167.045 C 482 169.945, 481.843 170.061, 478.723 169.476 C 476.246 169.011, 474.782 169.384, 472.723 171.003 C 467.437 175.161, 470.355 183.344, 477.068 183.190 C 485.889 182.988, 485 184.076, 485 173.489 C 485 165.721, 484.728 164, 483.500 164 C 482.495 164, 482 165.005, 482 167.045 M 580 173.500 C 580 182.333, 580.140 183, 582 183 C 583.313 183, 584 182.333, 584 181.059 C 584 177.827, 586.171 177.476, 588.453 180.339 C 589.620 181.802, 591.346 183, 592.288 183 C 594.420 183, 594.490 181.652, 592.445 179.955 C 588.883 176.998, 588.668 174.956, 591.597 171.898 C 594.020 169.370, 594.133 169, 592.485 169 C 591.445 169, 589.111 170.438, 587.298 172.196 L 584 175.392 584 169.696 C 584 164.667, 583.766 164, 582 164 C 580.140 164, 580 164.667, 580 173.500 M 249.913 166.282 C 246.274 169.076, 244.914 175.102, 247.030 179.055 C 249.514 183.698, 258.871 185.271, 261.948 181.563 C 263.617 179.552, 261.777 178.881, 258.247 180.213 C 252.184 182.502, 246.923 175.819, 250.496 170.366 C 252.066 167.970, 252.627 167.796, 257.078 168.323 C 262.273 168.938, 264.323 167.778, 261.094 166.050 C 258.454 164.638, 251.877 164.774, 249.913 166.282 M 396 174 C 396 181.157, 396.294 183, 397.437 183 C 398.327 183, 398.993 181.763, 399.187 179.750 C 399.481 176.699, 399.761 176.481, 403.750 176.193 C 406.644 175.983, 408 175.425, 408 174.443 C 408 173.400, 406.754 173, 403.500 173 C 399.367 173, 399 172.796, 399 170.500 C 399 168.167, 399.333 168, 404 168 C 407.778 168, 409 167.633, 409 166.500 C 409 165.321, 407.611 165, 402.500 165 L 396 165 396 174 M 503 166.500 C 503 167.500, 504 168, 506 168 L 509 168 509 175.500 C 509 181.500, 509.300 183, 510.500 183 C 511.700 183, 512 181.500, 512 175.500 L 512 168 515.500 168 C 517.944 168, 519 167.548, 519 166.500 C 519 165.292, 517.444 165, 511 165 C 504.556 165, 503 165.292, 503 166.500 M 270 175.927 C 270 182.386, 270.178 183, 272.046 183 C 273.934 183, 274.069 182.480, 273.796 176.260 C 273.555 170.777, 273.174 169.458, 271.750 169.187 C 270.217 168.895, 270 169.730, 270 175.927 M 282 176 C 282 181.556, 282.310 183, 283.500 183 C 284.579 183, 285 181.897, 285 179.071 C 285 175.366, 286.938 172, 289.071 172 C 289.582 172, 290 171.325, 290 170.500 C 290 168.726, 289.518 168.653, 286.934 170.035 C 285.601 170.749, 285 170.749, 285 170.035 C 285 169.466, 284.325 169, 283.500 169 C 282.310 169, 282 170.444, 282 176 M 298.911 170.871 C 295.892 173.315, 295.683 179.564, 298.550 181.661 C 301.461 183.790, 304.255 184.234, 307.349 183.057 C 310.949 181.689, 309.765 179.673, 305.864 180.530 C 303.007 181.157, 300 179.797, 300 177.878 C 300 177.395, 302.475 177, 305.500 177 C 311.830 177, 312.631 175.540, 308.545 171.455 C 305.616 168.525, 302.073 168.310, 298.911 170.871 M 342.695 170.111 C 338.130 172.766, 338.409 180.126, 343.167 182.586 C 348.203 185.191, 354.011 181.974, 353.985 176.595 C 353.967 172.940, 353.260 171.700, 350.316 170.150 C 347.635 168.739, 345.076 168.726, 342.695 170.111 M 362 176 C 362 181.556, 362.310 183, 363.500 183 C 364.601 183, 365 181.856, 365 178.700 C 365 174.110, 366.312 172, 369.165 172 C 371.465 172, 373 174.976, 373 179.434 C 373 181.937, 373.447 183, 374.500 183 C 376.935 183, 376.540 173.540, 374 171 C 371.763 168.763, 368.021 168.379, 366.200 170.200 C 365.267 171.133, 365 171.133, 365 170.200 C 365 169.540, 364.325 169, 363.500 169 C 362.310 169, 362 170.444, 362 176 M 430.695 170.111 C 426.130 172.766, 426.409 180.126, 431.167 182.586 C 436.203 185.191, 442.011 181.974, 441.985 176.595 C 441.967 172.940, 441.260 171.700, 438.316 170.150 C 435.635 168.739, 433.076 168.726, 430.695 170.111 M 452.500 170.195 C 449.714 171.775, 449.033 173.026, 449.015 176.595 C 448.995 180.619, 452.081 183.400, 456.564 183.400 C 460.677 183.400, 462.726 181.622, 463.589 177.303 C 464.752 171.492, 457.926 167.118, 452.500 170.195 M 525 176 C 525 181.556, 525.310 183, 526.500 183 C 527.466 183, 528.005 182.022, 528.014 180.250 C 528.036 175.767, 529.094 173.105, 531.108 172.466 C 532.149 172.135, 533 171.221, 533 170.433 C 533 168.727, 532.500 168.662, 529.934 170.035 C 528.601 170.749, 528 170.749, 528 170.035 C 528 169.466, 527.325 169, 526.500 169 C 525.310 169, 525 170.444, 525 176 M 541.695 169.700 C 538.569 170.510, 540.454 172.365, 544.473 172.434 C 546.609 172.470, 548.511 173.057, 548.745 173.750 C 549.022 174.571, 548.108 175, 546.083 175 C 542.010 175, 538.564 178.317, 539.949 180.905 C 541.299 183.426, 543.013 183.942, 547.877 183.290 L 552 182.737 552 177.523 C 552 170.148, 548.937 167.823, 541.695 169.700 M 563.500 170.195 C 560.714 171.775, 560.033 173.026, 560.015 176.595 C 559.989 182, 566.173 185.427, 570.656 182.490 C 573.870 180.384, 572.374 178.125, 569.114 180.161 C 566.231 181.961, 563.500 180.181, 563.500 176.500 C 563.500 172.986, 566.220 171.032, 568.836 172.666 C 570.011 173.399, 571.190 173.480, 572.089 172.889 C 573.260 172.120, 573.169 171.710, 571.559 170.481 C 569.264 168.730, 566.271 168.624, 563.500 170.195 M 602.455 171.455 C 599.658 174.251, 599.315 177.578, 601.501 180.698 C 603.342 183.326, 608.164 184.518, 610.941 183.031 C 614.103 181.339, 613.478 179.736, 609.959 180.509 C 607.007 181.157, 604 179.829, 604 177.878 C 604 177.395, 606.505 177, 609.567 177 C 614.868 177, 615.103 176.892, 614.480 174.750 C 612.825 169.057, 606.567 167.342, 602.455 171.455 M 622 176 C 622 181.556, 622.310 183, 623.500 183 C 624.579 183, 625 181.897, 625 179.071 C 625 175.366, 626.938 172, 629.071 172 C 629.582 172, 630 171.325, 630 170.500 C 630 168.726, 629.518 168.653, 626.934 170.035 C 625.601 170.749, 625 170.749, 625 170.035 C 625 169.466, 624.325 169, 623.500 169 C 622.310 169, 622 170.444, 622 176 M 300.713 172.621 C 299.163 174.170, 300.165 175, 303.583 175 C 306.002 175, 307.033 174.594, 306.756 173.750 C 306.297 172.352, 301.818 171.515, 300.713 172.621 M 321.980 174.038 C 319.872 177.976, 323.233 181.999, 327.321 180.430 C 331.348 178.885, 329.861 172, 325.500 172 C 324.079 172, 322.618 172.846, 321.980 174.038 M 344.046 173.445 C 341.201 176.872, 345.124 182.666, 348.750 180.393 C 352.318 178.156, 351.035 172, 347 172 C 346.035 172, 344.705 172.650, 344.046 173.445 M 432.046 173.445 C 429.201 176.872, 433.124 182.666, 436.750 180.393 C 440.318 178.156, 439.035 172, 435 172 C 434.035 172, 432.705 172.650, 432.046 173.445 M 453.046 173.445 C 450.202 176.872, 454.124 182.665, 457.750 180.394 C 459.918 179.037, 460.638 174.020, 458.830 172.874 C 456.812 171.595, 454.382 171.835, 453.046 173.445 M 473.980 174.038 C 471.872 177.976, 475.233 181.999, 479.321 180.430 C 483.348 178.885, 481.861 172, 477.500 172 C 476.079 172, 474.618 172.846, 473.980 174.038 M 604.713 172.621 C 603.163 174.170, 604.165 175, 607.583 175 C 610.002 175, 611.033 174.594, 610.756 173.750 C 610.297 172.352, 605.818 171.515, 604.713 172.621 M 543.667 177.667 C 541.965 179.368, 543.118 181.119, 545.741 180.816 C 549.343 180.401, 550.233 177, 546.740 177 C 545.416 177, 544.033 177.300, 543.667 177.667" stroke="none" fill="#f9f9f9" fill-rule="evenodd"/><path d="M 96.726 21.122 C 95.347 23.530, 74.772 60.600, 51.005 103.500 C 27.237 146.400, 6.953 182.963, 5.929 184.750 L 4.067 188 37.328 188 L 70.589 188 101.461 132.875 C 118.441 102.557, 132.333 77.243, 132.333 76.623 C 132.333 75.699, 107.087 29.827, 100.962 19.622 L 99.235 16.743 96.726 21.122 M 398.469 83.500 C 398.469 116.500, 398.596 129.855, 398.750 113.178 C 398.904 96.501, 398.903 69.501, 398.749 53.178 C 398.595 36.855, 398.469 50.500, 398.469 83.500 M 511.395 37.500 C 511.396 45.200, 511.553 48.218, 511.743 44.206 C 511.934 40.195, 511.932 33.895, 511.741 30.206 C 511.549 26.518, 511.393 29.800, 511.395 37.500 M 618.395 37.500 C 618.396 45.200, 618.553 48.218, 618.743 44.206 C 618.934 40.195, 618.932 33.895, 618.741 30.206 C 618.549 26.518, 618.393 29.800, 618.395 37.500 M 432.217 63.250 L 432.435 76.500 432.747 63.765 L 433.060 51.030 462.280 50.749 L 491.500 50.469 461.750 50.234 L 432 50 432.217 63.250 M 140.500 86.803 C 135.754 89.826, 134.770 91.302, 121.326 115.553 C 104.824 145.322, 104.997 143.158, 117.338 165.500 C 122.199 174.300, 127.149 182.555, 128.338 183.845 C 132.937 188.833, 134.063 189, 163.135 189 C 188.741 189, 190.627 188.875, 194.698 186.904 C 200.499 184.096, 204.406 177.573, 204.304 170.865 C 204.239 166.536, 202.155 162.280, 183.690 128.774 C 160.298 86.327, 159.897 85.813, 149.713 85.241 C 144.883 84.969, 142.832 85.317, 140.500 86.803 M 432.228 122.750 L 432.456 143.500 432.749 123.267 L 433.041 103.033 459.271 102.749 L 485.500 102.465 458.750 102.233 L 432 102 432.228 122.750 M 313.750 145.723 C 315.538 145.945, 318.462 145.945, 320.250 145.723 C 322.038 145.502, 320.575 145.320, 317 145.320 C 313.425 145.320, 311.962 145.502, 313.750 145.723 M 319.191 163.678 C 320.208 163.946, 321.041 165.395, 321.281 167.312 C 321.664 170.375, 321.686 170.353, 321.840 166.750 C 321.981 163.450, 321.730 163.014, 319.750 163.116 C 318.151 163.198, 317.990 163.361, 319.191 163.678 M 416 173.500 C 416 183.757, 416.052 183.997, 418.250 183.884 C 419.943 183.797, 420.067 183.655, 418.750 183.311 C 417.241 182.916, 417 181.567, 417 173.500 C 417 165.433, 417.241 164.084, 418.750 163.689 C 420.067 163.345, 419.943 163.203, 418.250 163.116 C 416.052 163.003, 416 163.243, 416 173.500 M 95.500 164.900 C 89.393 167.592, 86.367 175.942, 89.384 181.777 C 91.761 186.372, 94.718 188, 100.688 188 C 105.103 188, 106.477 187.520, 109.395 184.958 C 117.687 177.678, 113.367 165.170, 102.283 164.365 C 99.652 164.174, 96.600 164.415, 95.500 164.900 M 395.425 165.334 C 395.144 166.067, 395.046 170.455, 395.207 175.084 C 395.481 182.947, 395.648 183.521, 397.750 183.820 C 399.723 184.100, 400 183.699, 400 180.570 C 400 177.006, 400.007 177, 404.500 177 C 408.534 177, 408.988 176.767, 408.884 174.750 C 408.801 173.144, 408.640 172.985, 408.321 174.196 C 408.009 175.379, 406.611 175.983, 403.687 176.196 C 399.768 176.480, 399.480 176.708, 399.187 179.750 C 398.993 181.763, 398.327 183, 397.437 183 C 396.294 183, 396 181.157, 396 174 L 396 165 402.427 165 C 407.706 165, 408.935 165.312, 409.311 166.750 C 409.655 168.067, 409.797 167.943, 409.884 166.250 C 409.994 164.119, 409.628 164, 402.969 164 C 398.031 164, 395.785 164.397, 395.425 165.334 M 502.345 165.543 C 502.019 166.392, 502.034 167.367, 502.376 167.710 C 502.719 168.053, 503 167.602, 503 166.707 C 503 165.364, 504.437 165.022, 511.250 164.744 L 519.500 164.407 511.219 164.204 C 504.548 164.040, 502.822 164.300, 502.345 165.543 M 512 175.427 C 512 181.659, 511.719 182.927, 510.250 183.311 C 508.933 183.655, 509.057 183.797, 510.750 183.884 C 512.906 183.995, 513 183.664, 513 176 C 513 171.600, 512.775 168, 512.500 168 C 512.225 168, 512 171.342, 512 175.427 M 361.199 176.320 C 361.006 183.905, 361.067 184.130, 363.250 183.820 C 365.188 183.544, 365.511 182.876, 365.582 179 L 365.663 174.500 365.277 178.750 C 365.023 181.544, 364.410 183, 363.489 183 C 362.448 183, 361.999 181.137, 361.743 175.750 L 361.397 168.500 361.199 176.320 M 552 177.927 C 552 181.778, 551.618 182.953, 550.250 183.311 C 548.933 183.655, 549.057 183.797, 550.750 183.884 C 552.825 183.991, 553 183.571, 553 178.500 C 553 175.475, 552.775 173, 552.500 173 C 552.225 173, 552 175.217, 552 177.927 M 285 178.927 C 285 181.825, 284.542 182.973, 283.250 183.311 C 281.933 183.655, 282.057 183.797, 283.750 183.884 C 285.767 183.988, 286 183.534, 286 179.500 C 286 177.025, 285.775 175, 285.500 175 C 285.225 175, 285 176.767, 285 178.927 M 372.175 179.250 C 372.015 183.592, 372.193 183.990, 374.250 183.884 C 375.856 183.801, 376.015 183.640, 374.804 183.321 C 373.638 183.014, 372.990 181.567, 372.729 178.687 L 372.349 174.500 372.175 179.250 M 625 178.927 C 625 181.825, 624.542 182.973, 623.250 183.311 C 621.933 183.655, 622.057 183.797, 623.750 183.884 C 625.767 183.988, 626 183.534, 626 179.500 C 626 177.025, 625.775 175, 625.500 175 C 625.225 175, 625 176.767, 625 178.927 M 528 179.427 C 528 181.849, 527.487 182.987, 526.250 183.311 C 524.933 183.655, 525.057 183.797, 526.750 183.884 C 528.728 183.986, 529 183.516, 529 180 C 529 177.800, 528.775 176, 528.500 176 C 528.225 176, 528 177.542, 528 179.427 M 302.768 177.725 C 304.565 177.947, 307.265 177.943, 308.768 177.715 C 310.271 177.486, 308.800 177.304, 305.500 177.310 C 302.200 177.315, 300.971 177.502, 302.768 177.725 M 606.768 177.725 C 608.565 177.947, 611.265 177.943, 612.768 177.715 C 614.271 177.486, 612.800 177.304, 609.500 177.310 C 606.200 177.315, 604.971 177.502, 606.768 177.725" stroke="none" fill="#3b53fa" fill-rule="evenodd"/></svg>