<svg xmlns="http://www.w3.org/2000/svg" width="640" height="208" viewBox="0 0 640 208" version="1.1"><path d="M 306.500 22.055 C 281.866 25.738, 262.287 41.175, 254.812 62.810 C 252.825 68.560, 252.500 71.467, 252.500 83.500 C 252.500 99.694, 254.215 106.381, 261.100 117.034 C 277.183 141.917, 311.360 152.290, 342.073 141.609 C 352.197 138.089, 368 127.064, 368 123.522 C 368 122.325, 348.834 104, 347.582 104 C 347.247 104, 344.556 105.968, 341.604 108.372 C 334.012 114.556, 328.341 116.504, 318 116.481 C 311.494 116.466, 308.415 115.964, 304.878 114.343 C 297.935 111.162, 292.649 105.827, 289.439 98.762 C 286.974 93.335, 286.600 91.299, 286.629 83.500 C 286.693 66.427, 294.229 55.896, 309.573 51.436 C 320.921 48.137, 333.875 51.404, 342.886 59.839 L 347.273 63.944 358.166 53.936 L 369.060 43.928 363.986 38.986 C 357.191 32.368, 348.481 27.418, 338.629 24.576 C 329.238 21.868, 315.149 20.762, 306.500 22.055 M 398 83.500 L 398 143 415.500 143 L 433 143 433 123 L 433 103 459 103 L 485 103 485 89.500 L 485 76 459 76 L 433 76 433 63.515 L 433 51.030 462.250 50.765 L 491.500 50.500 491.779 37.250 L 492.058 24 445.029 24 L 398 24 398 83.500 M 511 37.500 L 511 51 529.500 51 L 548 51 548 97 L 548 143 565 143 L 582 143 582 97 L 582 51 600.500 51 L 619 51 619 37.500 L 619 24 565 24 L 511 24 511 37.500 M 270 165 C 270 166.333, 270.667 167, 272 167 C 273.333 167, 274 166.333, 274 165 C 274 163.667, 273.333 163, 272 163 C 270.667 163, 270 163.667, 270 165 M 318 173.397 L 318 183.793 323.437 183.858 C 330.430 183.942, 333.143 181.941, 333.295 176.588 C 333.434 171.658, 330.162 168.646, 325.285 169.215 C 322.158 169.580, 322 169.440, 322 166.299 C 322 163.667, 321.596 163, 320 163 C 318.128 163, 318 163.667, 318 173.397 M 416.667 163.667 C 416.300 164.033, 416 168.758, 416 174.167 C 416 183.333, 416.136 184, 418 184 C 419.873 184, 420 183.333, 420 173.500 C 420 165.417, 419.693 163, 418.667 163 C 417.933 163, 417.033 163.300, 416.667 163.667 M 481.667 163.667 C 481.300 164.033, 481 165.530, 481 166.993 C 481 169.381, 480.692 169.608, 477.998 169.213 C 473.200 168.509, 470 171.234, 470 176.023 C 470 181.905, 472.523 183.975, 479.469 183.792 L 485 183.647 485 173.323 C 485 165.387, 484.692 163, 483.667 163 C 482.933 163, 482.033 163.300, 481.667 163.667 M 580 173.500 C 580 183.333, 580.127 184, 582 184 C 583.448 184, 584 183.333, 584 181.583 C 584 178.097, 586.064 177.923, 588.804 181.178 C 590.952 183.731, 595.040 185.104, 594.973 183.250 C 594.958 182.838, 593.635 180.925, 592.033 179 L 589.120 175.500 592.256 172.250 C 595.265 169.131, 595.301 169, 593.129 169 C 591.885 169, 589.322 170.178, 587.433 171.619 L 584 174.237 584 168.619 C 584 163.667, 583.763 163, 582 163 C 580.127 163, 580 163.667, 580 173.500 M 251.308 165.010 C 248.183 166.268, 245.600 170.679, 245.600 174.756 C 245.600 179.475, 250.486 184, 255.582 184 C 259.740 184, 263 182.493, 263 180.572 C 263 178.903, 260.287 177.727, 259.473 179.044 C 258.535 180.562, 253.297 180.154, 251.571 178.429 C 247.596 174.453, 251.347 167.146, 256.715 168.408 C 261.699 169.580, 262.419 169.523, 262.751 167.928 C 263.378 164.916, 256.130 163.067, 251.308 165.010 M 395.443 165.288 C 395.152 166.046, 395.046 170.455, 395.207 175.084 C 395.481 182.947, 395.648 183.521, 397.750 183.820 C 399.723 184.100, 400 183.699, 400 180.570 C 400 177.006, 400.007 177, 404.500 177 C 408.333 177, 409 176.704, 409 175 C 409 173.296, 408.333 173, 404.500 173 C 400.367 173, 400 172.796, 400 170.500 C 400 168.162, 400.328 168, 405.073 168 C 409.366 168, 410.095 167.731, 409.813 166.250 C 409.541 164.826, 408.222 164.445, 402.726 164.204 C 397.697 163.984, 395.837 164.260, 395.443 165.288 M 502.667 164.667 C 500.886 166.447, 502.206 168, 505.500 168 L 509 168 509 176 C 509 183.333, 509.167 184, 511 184 C 512.833 184, 513 183.333, 513 176 L 513 168 516 168 C 518.333 168, 519 167.556, 519 166 C 519 164.170, 518.333 164, 511.167 164 C 506.858 164, 503.033 164.300, 502.667 164.667 M 270 176.500 C 270 183.333, 270.178 184, 272 184 C 273.822 184, 274 183.333, 274 176.500 C 274 169.667, 273.822 169, 272 169 C 270.178 169, 270 169.667, 270 176.500 M 282 176.583 C 282 183.333, 282.180 184, 284 184 C 285.735 184, 286 183.333, 286 178.975 C 286 174.536, 286.291 173.840, 288.500 173 C 292.766 171.378, 291.612 169.167, 286.500 169.167 L 282 169.167 282 176.583 M 298.039 171.189 C 296.857 172.457, 296 174.739, 296 176.616 C 296 182.381, 303.719 186.120, 308.462 182.652 C 311.238 180.621, 309.536 179.118, 305.129 179.709 C 302.817 180.020, 300.982 179.780, 300.571 179.114 C 300.096 178.346, 301.610 178, 305.441 178 C 310.704 178, 311 177.867, 311 175.500 C 311 169.564, 302.261 166.657, 298.039 171.189 M 341.174 171.314 C 334.280 178.653, 345.417 188.674, 352.545 181.545 C 355.545 178.546, 355.677 175.130, 352.927 171.635 C 350.159 168.115, 344.329 167.956, 341.174 171.314 M 361.208 176.358 C 361.469 182.736, 361.714 183.500, 363.500 183.500 C 365.203 183.500, 365.544 182.734, 365.799 178.338 C 366.104 173.073, 367.433 171.462, 370.500 172.638 C 371.577 173.052, 372 174.736, 372 178.607 C 372 183.333, 372.247 184, 374 184 C 375.775 184, 376 183.333, 376 178.071 C 376 170.268, 374.733 169.022, 366.911 169.132 L 360.917 169.216 361.208 176.358 M 429.174 171.314 C 422.280 178.653, 433.417 188.674, 440.545 181.545 C 443.545 178.546, 443.677 175.130, 440.927 171.635 C 438.159 168.115, 432.329 167.956, 429.174 171.314 M 450.343 171.566 C 448.273 173.636, 447.895 174.748, 448.391 177.316 C 449.608 183.616, 456.227 185.969, 461.365 181.927 C 464.667 179.330, 464.978 173.978, 462 171 C 459.077 168.077, 453.564 168.345, 450.343 171.566 M 525 176.583 C 525 183.267, 525.192 184, 526.948 184 C 528.592 184, 528.943 183.183, 529.198 178.750 C 529.461 174.176, 529.790 173.459, 531.750 173.180 C 533.156 172.981, 534 172.168, 534 171.014 C 534 169.491, 533.209 169.167, 529.500 169.167 L 525 169.167 525 176.583 M 541.250 169.662 C 540.563 169.940, 540 170.854, 540 171.695 C 540 172.887, 540.738 173.084, 543.362 172.592 C 545.751 172.144, 547.088 172.401, 547.984 173.481 C 549.075 174.796, 548.718 175, 545.322 175 C 541.101 175, 539 176.372, 539 179.129 C 539 182.389, 541.775 183.927, 547.533 183.858 L 553 183.793 553 178.619 C 553 171.702, 551.054 168.975, 546.193 169.079 C 544.162 169.122, 541.938 169.385, 541.250 169.662 M 561.073 171.635 C 558.323 175.130, 558.455 178.546, 561.455 181.545 C 565.036 185.127, 573 184.374, 573 180.453 C 573 179.303, 572.159 179.111, 569.202 179.584 C 564.857 180.278, 562.422 178.395, 563.455 175.140 C 564.267 172.583, 566.639 171.736, 569.180 173.096 C 570.601 173.857, 571.531 173.869, 572.265 173.135 C 574.086 171.314, 571.111 169, 566.950 169 C 564.031 169, 562.663 169.613, 561.073 171.635 M 602 171 C 600.778 172.222, 600 174.333, 600 176.427 C 600 182.378, 607.626 186.187, 612.462 182.652 C 615.238 180.621, 613.536 179.118, 609.129 179.709 C 606.817 180.020, 604.982 179.780, 604.571 179.114 C 604.096 178.346, 605.610 178, 609.441 178 C 614.704 178, 615 177.867, 615 175.500 C 615 171.888, 611.668 169, 607.500 169 C 605.333 169, 603.238 169.762, 602 171 M 622 176.583 C 622 183.333, 622.180 184, 624 184 C 625.735 184, 626 183.333, 626 178.975 C 626 174.536, 626.291 173.840, 628.500 173 C 632.766 171.378, 631.612 169.167, 626.500 169.167 L 622 169.167 622 176.583 M 301 173.500 C 299.932 174.786, 300.271 175, 303.378 175 C 307.102 175, 308.224 173.684, 305.418 172.607 C 303.069 171.706, 302.372 171.847, 301 173.500 M 323.046 173.445 C 322.386 174.240, 321.994 175.927, 322.173 177.195 C 322.432 179.017, 323.129 179.500, 325.500 179.500 C 327.871 179.500, 328.568 179.017, 328.827 177.195 C 329.185 174.669, 327.475 172, 325.500 172 C 324.810 172, 323.705 172.650, 323.046 173.445 M 344.544 173.344 C 341.907 175.273, 343.168 180, 346.319 180 C 350.600 180, 352.314 176.457, 349.429 173.571 C 347.511 171.654, 346.895 171.625, 344.544 173.344 M 432.544 173.344 C 429.907 175.273, 431.168 180, 434.319 180 C 438.600 180, 440.314 176.457, 437.429 173.571 C 435.511 171.654, 434.895 171.625, 432.544 173.344 M 453.571 173.571 C 451.662 175.481, 451.627 176.108, 453.306 178.404 C 455.222 181.024, 459.407 180.162, 459.845 177.056 C 460.057 175.554, 459.502 174.109, 458.404 173.306 C 456.108 171.627, 455.481 171.662, 453.571 173.571 M 475.046 173.445 C 474.386 174.240, 473.994 175.927, 474.173 177.195 C 474.432 179.017, 475.129 179.500, 477.500 179.500 C 479.871 179.500, 480.568 179.017, 480.827 177.195 C 481.185 174.669, 479.475 172, 477.500 172 C 476.810 172, 475.705 172.650, 475.046 173.445 M 605 173.500 C 603.931 174.788, 604.285 175, 607.500 175 C 610.715 175, 611.069 174.788, 610 173.500 C 609.315 172.675, 608.190 172, 607.500 172 C 606.810 172, 605.685 172.675, 605 173.500 M 543 179.031 C 543 180.907, 546.127 181.302, 547.792 179.637 C 549.307 178.121, 549.191 178, 546.214 178 C 544.446 178, 543 178.464, 543 179.031 M 152.250 189.747 C 158.712 189.921, 169.287 189.921, 175.750 189.747 C 182.213 189.573, 176.925 189.430, 164 189.430 C 151.075 189.430, 145.787 189.573, 152.250 189.747" stroke="none" fill="#060606" fill-rule="evenodd"/><path d="M 52 102.061 C 26.425 148.257, 5.350 186.492, 5.167 187.027 C 4.955 187.645, 16.810 187.988, 37.667 187.967 L 70.500 187.934 101 133.382 C 117.775 103.378, 131.648 78.180, 131.829 77.385 C 132.173 75.876, 100.297 17.975, 99.155 18.034 C 98.795 18.052, 77.575 55.864, 52 102.061 M 141.500 86.412 C 136.811 88.495, 135.139 90.956, 121.396 116 C 104.860 146.132, 105.054 143.230, 118.035 166.380 C 124.455 177.828, 128.601 184.102, 130.922 185.880 L 134.344 188.500 163.500 188.500 L 192.656 188.500 196.413 185.634 C 202.485 181.003, 204.176 177.492, 203.701 170.500 C 203.321 164.908, 202.090 162.327, 185.577 132.500 C 161.950 89.823, 162.201 90.226, 157.412 87.406 C 152.781 84.680, 146.307 84.275, 141.500 86.412 M 94.190 166.026 C 91.024 167.956, 88 173.105, 88 176.567 C 88 177.464, 88.682 179.636, 89.516 181.393 C 93.839 190.503, 108.176 189.990, 112.671 180.564 C 114.208 177.340, 114.200 176.812, 112.543 172.473 C 109.517 164.550, 101.328 161.673, 94.190 166.026" stroke="none" fill="#3c54fa" fill-rule="evenodd"/></svg>